<svg xmlns="http://www.w3.org/2000/svg" class="site-header-icon" aria-hidden="true" viewBox="0 0 32 32">
        <g fill="none" fill-rule="evenodd" stroke="none">
          <path class="svg-stroke" d="M 11.7014 7.72646 C 7.91761 7.0438 4.81335 7.6937 3.61537 9.74909 C 2.72656 11.274 3.03879 13.3123 4.27551 15.449 M 6.32643 18.1887 C 7.89194 19.8928 9.96668 21.5481 12.4121 22.9466 C 18.2414 26.2805 24.2931 27.0779 27.1669 25.1368 M 29.8456 24.0565 C 29.8456 23.1972 29.1424 22.5006 28.2749 22.5006 C 27.4073 22.5006 26.7041 23.1972 26.7041 24.0565 C 26.7041 24.9158 27.4073 25.6125 28.2749 25.6125 C 29.1424 25.6125 29.8456 24.9158 29.8456 24.0565 L 29.8456 24.0565 Z" />
          <path class="svg-stroke" d="M 26.1017 17.6998 C 28.579 14.8009 29.5564 11.8211 28.3609 9.76996 C 27.4867 8.27 25.5972 7.51856 23.1693 7.48728 M 19.6971 7.86084 C 17.4054 8.3472 14.8949 9.30455 12.4243 10.7175 C 6.42289 14.1497 2.65402 19.1282 3.16553 22.5805 M 3.68502 25.6125 C 4.55254 25.6125 5.2558 24.9158 5.2558 24.0565 C 5.2558 23.1972 4.55254 22.5006 3.68502 22.5006 C 2.8175 22.5006 2.11424 23.1972 2.11424 24.0565 C 2.11424 24.9158 2.8175 25.6125 3.68502 25.6125 L 3.68502 25.6125 L 3.68502 25.6125 Z" />
          <path class="svg-stroke" d="M 10.1857 25.07 C 11.481 28.6529 13.6 30.9876 15.9942 30.9876 C 17.7293 30.9876 19.3198 29.7615 20.557 27.7228 M 22.0509 24.3364 C 22.7373 22.1635 23.1341 19.5948 23.1341 16.8425 C 23.1341 10.088 20.7444 4.43922 17.5486 3.03357 M 15.9942 4.25337 C 16.8617 4.25337 17.565 3.55675 17.565 2.69741 C 17.565 1.83808 16.8617 1.14145 15.9942 1.14145 C 15.1267 1.14145 14.4234 1.83808 14.4234 2.69741 C 14.4234 3.55675 15.1267 4.25337 15.9942 4.25337 Z" />
          <path class="svg-fill" d="M 16.2975 18.2335 C 15.5219 18.3995 14.7578 17.9113 14.5899 17.143 C 14.4227 16.3747 14.9153 15.6179 15.6908 15.4515 C 16.4664 15.2855 17.2305 15.7738 17.3984 16.542 C 17.566 17.3103 17.0731 18.0672 16.2975 18.2335 Z" />
        </g>
      </svg>